<?xml version="1.0" encoding="utf-8"?>
<!-- Generator: Adobe Illustrator 19.0.0, SVG Export Plug-In . SVG Version: 6.00 Build 0)  -->
<svg version="1.1" id="Layer_1" xmlns="http://www.w3.org/2000/svg" xmlns:xlink="http://www.w3.org/1999/xlink" x="0px" y="0px"
	 viewBox="0 0 30 22" style="enable-background:new 0 0 30 22;" xml:space="preserve">
<style type="text/css">
	.Drop_x0020_Shadow{fill:none;}
	.Round_x0020_Corners_x0020_2_x0020_pt{fill:#FFFFFF;stroke:#231F20;stroke-miterlimit:10;}
	.Live_x0020_Reflect_x0020_X{fill:none;}
	.Bevel_x0020_Soft{fill:url(#SVGID_1_);}
	.Dusk{fill:#FFFFFF;}
	.Foliage_GS{fill:#FFDD00;}
	.Pompadour_GS{fill-rule:evenodd;clip-rule:evenodd;fill:#44ADE2;}
	.st0{fill:#FFFFFF;}
</style>
<linearGradient id="SVGID_1_" gradientUnits="userSpaceOnUse" x1="0" y1="0" x2="0.7071" y2="0.7071">
	<stop  offset="0" style="stop-color:#DEDFE3"/>
	<stop  offset="0.1783" style="stop-color:#DADBDF"/>
	<stop  offset="0.3611" style="stop-color:#CECFD3"/>
	<stop  offset="0.546" style="stop-color:#B9BCBF"/>
	<stop  offset="0.7324" style="stop-color:#9CA0A2"/>
	<stop  offset="0.9181" style="stop-color:#787D7E"/>
	<stop  offset="1" style="stop-color:#656B6C"/>
</linearGradient>
<g id="XMLID_10_">
	<path id="XMLID_71_" class="st0" d="M9,3.2c0.1-0.1,0.3-0.1,0.4,0l1.4,1.4c0.4,0.4,1.1,0.6,1.7,0.3c0.6-0.2,0.9-0.8,0.9-1.4v-2
		c0-0.2,0.1-0.3,0.3-0.3h2.5c0.2,0,0.3,0.1,0.3,0.3v2c0,0.6,0.4,1.2,0.9,1.4c0.6,0.2,1.2,0.1,1.7-0.3l1.4-1.4c0.1-0.1,0.3-0.1,0.4,0
		L22.8,5c0.1,0.1,0.1,0.3,0,0.4l-1.4,1.4c-0.4,0.4-0.6,1.1-0.3,1.7c0.2,0.6,0.8,0.9,1.4,0.9h2c0.2,0,0.3,0.1,0.3,0.3v1.2h0.8V9.7
		c0-0.6-0.5-1.1-1.1-1.1h-2c-0.3,0-0.6-0.2-0.7-0.5c-0.1-0.3-0.1-0.6,0.2-0.8L23.3,6c0.2-0.2,0.3-0.5,0.3-0.8c0-0.3-0.1-0.6-0.3-0.8
		l-1.8-1.8c-0.4-0.4-1.1-0.4-1.5,0l-1.4,1.4c-0.2,0.2-0.5,0.3-0.8,0.2c-0.3-0.1-0.5-0.4-0.5-0.7v-2c0-0.6-0.5-1.1-1.1-1.1h-2.5
		c-0.6,0-1.1,0.5-1.1,1.1v2c0,0.3-0.2,0.6-0.5,0.7c-0.3,0.1-0.6,0.1-0.8-0.2L10,2.7c-0.4-0.4-1.1-0.4-1.5,0L6.7,4.5
		C6.5,4.7,6.4,4.9,6.4,5.2c0,0.3,0.1,0.6,0.3,0.8l1.4,1.4c0.2,0.2,0.3,0.5,0.2,0.8C8.1,8.5,7.9,8.7,7.5,8.7h-2
		C5,8.7,4.5,9.2,4.5,9.7v2.5c0,0.6,0.5,1.1,1.1,1.1h2c0.3,0,0.6,0.2,0.7,0.5c0.1,0.3,0.1,0.6-0.2,0.8L6.7,16
		c-0.2,0.2-0.3,0.5-0.3,0.8c0,0.3,0.1,0.6,0.3,0.8l1.8,1.8c0.4,0.4,1.1,0.4,1.5,0l1.4-1.4c0.2-0.2,0.5-0.3,0.8-0.2
		c0.3,0.1,0.5,0.4,0.5,0.7v2c0,0.6,0.5,1.1,1.1,1.1h2.1v-0.8h-2.1c-0.2,0-0.3-0.1-0.3-0.3v-2c0-0.6-0.4-1.2-0.9-1.4
		c-0.2-0.1-0.4-0.1-0.6-0.1c-0.4,0-0.8,0.2-1.1,0.5l-1.4,1.4c-0.1,0.1-0.3,0.1-0.4,0L7.2,17c-0.1-0.1-0.1-0.3,0-0.4l1.4-1.4
		c0.4-0.4,0.6-1.1,0.3-1.7c-0.2-0.6-0.8-0.9-1.4-0.9h-2c-0.2,0-0.3-0.1-0.3-0.3V9.7c0-0.2,0.1-0.3,0.3-0.3h2c0.6,0,1.2-0.4,1.4-0.9
		c0.2-0.6,0.1-1.2-0.3-1.7L7.2,5.4C7.1,5.3,7.1,5.1,7.2,5L9,3.2z"/>
	<path id="XMLID_40_" class="st0" d="M24.7,12.3"/>
	<path id="XMLID_46_" class="st0" d="M15,7.5c-1.9,0-3.5,1.6-3.5,3.5c0,1.9,1.6,3.5,3.5,3.5c0.6,0,1.1-0.1,1.5-0.4v-0.9
		c-0.4,0.3-1,0.5-1.5,0.5c-1.5,0-2.7-1.2-2.7-2.7c0-1.5,1.2-2.7,2.7-2.7c1.5,0,2.7,1.2,2.7,2.7c0,0.1,0,0.1,0,0.2h0.8
		c0-0.1,0-0.1,0-0.2C18.5,9.1,16.9,7.5,15,7.5z"/>
	<path id="XMLID_30_" class="st0" d="M15,13.7"/>
</g>
</svg>
