<?xml version="1.0" encoding="utf-8"?>
<!-- Generator: Adobe Illustrator 19.0.0, SVG Export Plug-In . SVG Version: 6.00 Build 0)  -->
<svg version="1.1" id="Layer_1" xmlns="http://www.w3.org/2000/svg" xmlns:xlink="http://www.w3.org/1999/xlink" x="0px" y="0px"
	 viewBox="0 0 30 22" style="enable-background:new 0 0 30 22;" xml:space="preserve">
<style type="text/css">
	.Drop_x0020_Shadow{fill:none;}
	.Round_x0020_Corners_x0020_2_x0020_pt{fill:#FFFFFF;stroke:#231F20;stroke-miterlimit:10;}
	.Live_x0020_Reflect_x0020_X{fill:none;}
	.Bevel_x0020_Soft{fill:url(#SVGID_1_);}
	.Dusk{fill:#FFFFFF;}
	.Foliage_GS{fill:#FFDD00;}
	.Pompadour_GS{fill-rule:evenodd;clip-rule:evenodd;fill:#44ADE2;}
	.st0{fill:#FFFFFF;}
</style>
<linearGradient id="SVGID_1_" gradientUnits="userSpaceOnUse" x1="0" y1="0" x2="0.7071" y2="0.7071">
	<stop  offset="0" style="stop-color:#DEDFE3"/>
	<stop  offset="0.1783" style="stop-color:#DADBDF"/>
	<stop  offset="0.3611" style="stop-color:#CECFD3"/>
	<stop  offset="0.546" style="stop-color:#B9BCBF"/>
	<stop  offset="0.7324" style="stop-color:#9CA0A2"/>
	<stop  offset="0.9181" style="stop-color:#787D7E"/>
	<stop  offset="1" style="stop-color:#656B6C"/>
</linearGradient>
<path id="XMLID_12_" class="st0" d="M28.6,6.1c-2-1.2-4.3-0.6-5.9,0.2l-4.7,2.2l-8-4L5.3,4.6l6.6,6.7l-4.2,2l-4.4-1.7L0.3,13L3,16.3
	c-0.3,0.3-0.5,0.8-0.3,1.3c0.3,0.6,1.2,1,2.7,1c0.3,0,0.6,0,1,0c1.6-0.1,3.4-0.5,4.4-1l5.7-2.7h-2.9l-3.4,1.6
	c-0.9,0.4-2.5,0.8-3.9,0.9c-1.5,0.1-2.2,0-2.5-0.2C3.9,17.1,4,17,4.2,16.8l0.4-0.4l-2.4-3l1.1-0.5l4.4,1.7l6.2-3L8,5.7l1.8-0.1
	l8.3,4.2l5.2-2.4c1.9-0.9,3.5-1,4.8-0.2h0c0.3,0.2,0.4,0.3,0.4,0.4c0,0,0,0.4-1.5,1.1l-1.7,0.8H28c1.1-0.6,1.6-1.2,1.6-1.9
	C29.7,7.2,29.5,6.6,28.6,6.1z"/>
</svg>
