<?xml version="1.0" encoding="utf-8"?>
<!-- Generator: Adobe Illustrator 19.0.0, SVG Export Plug-In . SVG Version: 6.00 Build 0)  -->
<svg version="1.1" id="Layer_1" xmlns="http://www.w3.org/2000/svg" xmlns:xlink="http://www.w3.org/1999/xlink" x="0px" y="0px"
	 viewBox="0 0 30 22" style="enable-background:new 0 0 30 22;" xml:space="preserve">
<style type="text/css">
	.Drop_x0020_Shadow{fill:none;}
	.Round_x0020_Corners_x0020_2_x0020_pt{fill:#FFFFFF;stroke:#231F20;stroke-miterlimit:10;}
	.Live_x0020_Reflect_x0020_X{fill:none;}
	.Bevel_x0020_Soft{fill:url(#SVGID_1_);}
	.Dusk{fill:#FFFFFF;}
	.Foliage_GS{fill:#FFDD00;}
	.Pompadour_GS{fill-rule:evenodd;clip-rule:evenodd;fill:#44ADE2;}
	.st0{fill:#FFFFFF;}
</style>
<linearGradient id="SVGID_1_" gradientUnits="userSpaceOnUse" x1="0" y1="0" x2="0.7071" y2="0.7071">
	<stop  offset="0" style="stop-color:#DEDFE3"/>
	<stop  offset="0.1783" style="stop-color:#DADBDF"/>
	<stop  offset="0.3611" style="stop-color:#CECFD3"/>
	<stop  offset="0.546" style="stop-color:#B9BCBF"/>
	<stop  offset="0.7324" style="stop-color:#9CA0A2"/>
	<stop  offset="0.9181" style="stop-color:#787D7E"/>
	<stop  offset="1" style="stop-color:#656B6C"/>
</linearGradient>
<path id="XMLID_29_" class="st0" d="M23,20.5v0.2h-5.5V15c0-0.3-0.2-0.5-0.5-0.5h-4c-0.3,0-0.5,0.2-0.5,0.5v4.5
	c0,0.3,0.2,0.5,0.5,0.5c0.3,0,0.5-0.2,0.5-0.5v-4h3v5.2H7V8.2l8-6.4l8.2,6.6c0.2,0.2,0.5,0.1,0.7-0.1c0.2-0.2,0.1-0.5-0.1-0.7
	l-8.5-6.8c-0.2-0.1-0.5-0.1-0.6,0L6.2,7.5C6,7.6,6,7.8,6,7.9v13.3c0,0.3,0.2,0.5,0.5,0.5h17c0.3,0,0.5-0.2,0.5-0.5v-0.7H23z"/>
</svg>
