<?xml version="1.0" encoding="utf-8"?>
<!-- Generator: Adobe Illustrator 19.0.0, SVG Export Plug-In . SVG Version: 6.00 Build 0)  -->
<svg version="1.1" id="Layer_1" xmlns="http://www.w3.org/2000/svg" xmlns:xlink="http://www.w3.org/1999/xlink" x="0px" y="0px"
	 viewBox="0 0 30 22" style="enable-background:new 0 0 30 22;" xml:space="preserve">
<style type="text/css">
	.Drop_x0020_Shadow{fill:none;}
	.Round_x0020_Corners_x0020_2_x0020_pt{fill:#FFFFFF;stroke:#231F20;stroke-miterlimit:10;}
	.Live_x0020_Reflect_x0020_X{fill:none;}
	.Bevel_x0020_Soft{fill:url(#SVGID_1_);}
	.Dusk{fill:#FFFFFF;}
	.Foliage_GS{fill:#FFDD00;}
	.Pompadour_GS{fill-rule:evenodd;clip-rule:evenodd;fill:#44ADE2;}
	.st0{fill:#FFFFFF;stroke:#FFFFFF;stroke-width:0.4;stroke-miterlimit:10;}
</style>
<linearGradient id="SVGID_1_" gradientUnits="userSpaceOnUse" x1="0" y1="0" x2="0.7071" y2="0.7071">
	<stop  offset="0" style="stop-color:#DEDFE3"/>
	<stop  offset="0.1783" style="stop-color:#DADBDF"/>
	<stop  offset="0.3611" style="stop-color:#CECFD3"/>
	<stop  offset="0.546" style="stop-color:#B9BCBF"/>
	<stop  offset="0.7324" style="stop-color:#9CA0A2"/>
	<stop  offset="0.9181" style="stop-color:#787D7E"/>
	<stop  offset="1" style="stop-color:#656B6C"/>
</linearGradient>
<g id="XMLID_60_">
	<path id="XMLID_145_" class="st0" d="M12.4,11.3h-1.6c-0.1,0-0.2,0.1-0.2,0.2v2.4c0,0.1,0.1,0.2,0.2,0.2h1.6c0.1,0,0.2-0.1,0.2-0.2
		v-2.4C12.6,11.4,12.5,11.3,12.4,11.3L12.4,11.3z M12.1,13.6H11v-1.9h1.2V13.6z M12.1,13.6"/>
	<path id="XMLID_141_" class="st0" d="M19.3,11.3h-1.6c-0.1,0-0.2,0.1-0.2,0.2v2.4c0,0.1,0.1,0.2,0.2,0.2h1.6c0.1,0,0.2-0.1,0.2-0.2
		v-2.4C19.5,11.4,19.4,11.3,19.3,11.3L19.3,11.3z M19,13.6h-1.2v-1.9H19V13.6z M19,13.6"/>
	<path id="XMLID_137_" class="st0" d="M19.3,15h-1.6c-0.1,0-0.2,0.1-0.2,0.2v2.4c0,0.1,0.1,0.2,0.2,0.2h1.6c0.1,0,0.2-0.1,0.2-0.2
		v-2.4C19.5,15.1,19.4,15,19.3,15L19.3,15z M19,17.4h-1.2v-1.9H19V17.4z M19,17.4"/>
	<path id="XMLID_129_" class="st0" d="M12.4,15h-1.6c-0.1,0-0.2,0.1-0.2,0.2v2.4c0,0.1,0.1,0.2,0.2,0.2h1.6c0.1,0,0.2-0.1,0.2-0.2
		v-2.4C12.6,15.1,12.5,15,12.4,15L12.4,15z M12.1,17.4H11v-1.9h1.2V17.4z M12.1,17.4"/>
	<path id="XMLID_38_" class="st0" d="M23.9,20.6L23.9,20.6l-0.7-0.1v0.1H6.7V8.9h16.5v1.3h0.7V8.9h0.3c0.2,0,0.3-0.2,0.3-0.3V6.9
		c0-0.2-0.2-0.3-0.3-0.3h-0.3V5.2c0-0.2-0.2-0.3-0.3-0.3h-0.7V1c0-0.2-0.2-0.3-0.3-0.3H7.4C7.2,0.7,7.1,0.8,7.1,1v3.8H6.4
		C6.2,4.8,6.1,5,6.1,5.2v1.4H5.7c-0.2,0-0.3,0.2-0.3,0.3v1.7c0,0.2,0.2,0.3,0.3,0.3h0.3v11.7H4.7v0.7h20.6v-0.7H23.9z M7.8,1.4h14.5
		v3.4H7.8V1.4z M6.1,7.2h0.8V6.5H6.7v-1h16.5v1h-0.2v0.7h0.8v1H6.1V7.2z"/>
	<path id="XMLID_26_" class="st0" d="M6.4,8.2"/>
	<path id="XMLID_14_" class="st0" d="M15.7,2.2h-1.1c-0.1,0-0.2,0.1-0.2,0.2v1.5c0,0.1,0.1,0.2,0.2,0.2h1.1c0.1,0,0.2-0.1,0.2-0.2
		V2.3C15.9,2.2,15.8,2.2,15.7,2.2L15.7,2.2z M15.5,3.7h-0.8V2.5h0.8V3.7z M15.5,3.7"/>
	<path id="XMLID_5_" class="st0" d="M21.2,2.2h-1.1c-0.1,0-0.2,0.1-0.2,0.2v1.5C20,3.9,20.1,4,20.1,4h1.1c0.1,0,0.2-0.1,0.2-0.2V2.3
		C21.4,2.2,21.3,2.2,21.2,2.2L21.2,2.2z M21.1,3.7h-0.8V2.5h0.8V3.7z M21.1,3.7"/>
	<path id="XMLID_3_" class="st0" d="M10,2.2H9c-0.1,0-0.2,0.1-0.2,0.2v1.5C8.8,3.9,8.9,4,9,4H10c0.1,0,0.2-0.1,0.2-0.2V2.3
		C10.2,2.2,10.1,2.2,10,2.2L10,2.2z M9.9,3.7H9.1V2.5h0.8V3.7z M9.9,3.7"/>
</g>
</svg>
